<svg xmlns="http://www.w3.org/2000/svg" height="512pt" version="1.1" viewBox="0 -9 512 512" width="512pt">
<g id="surface1">
<path d="M 167.722656 247.171875 C 167.722656 295.925781 207.246094 335.449219 256 335.449219 C 304.753906 335.449219 344.277344 295.925781 344.277344 247.171875 C 344.277344 198.417969 304.753906 158.894531 256 158.894531 C 207.246094 158.894531 167.722656 198.417969 167.722656 247.171875 Z M 203.035156 247.171875 C 203.0625 217.933594 226.761719 194.234375 256 194.207031 C 226.757812 194.234375 203.0625 217.933594 203.035156 247.171875 Z M 308.964844 247.171875 C 308.9375 276.410156 285.238281 300.109375 256 300.136719 C 285.238281 300.109375 308.9375 276.410156 308.964844 247.171875 Z M 273.65625 247.171875 C 273.65625 256.921875 265.75 264.828125 256 264.828125 C 246.25 264.828125 238.34375 256.921875 238.34375 247.171875 C 238.34375 237.421875 246.25 229.515625 256 229.515625 C 265.75 229.515625 273.65625 237.421875 273.65625 247.171875 Z M 273.65625 247.171875 " style=" stroke:none;fill-rule:nonzero;fill:rgb(74.117647%,85.882353%,100%);fill-opacity:1;" />
<path d="M 273.65625 247.171875 C 273.65625 256.921875 265.75 264.828125 256 264.828125 C 246.25 264.828125 238.34375 256.921875 238.34375 247.171875 C 238.34375 237.421875 246.25 229.515625 256 229.515625 C 265.75 229.515625 273.65625 237.421875 273.65625 247.171875 Z M 273.65625 247.171875 " style=" stroke:none;fill-rule:nonzero;fill:rgb(34.117647%,64.313725%,100%);fill-opacity:1;" />
<path d="M 0 361.929688 L 0 238.34375 C 0 126.210938 90.902344 35.308594 203.035156 35.308594 L 317.792969 35.308594 L 317.792969 0 L 406.070312 52.964844 L 317.792969 105.929688 L 317.792969 70.621094 L 215.394531 70.621094 C 119.980469 70.632812 41.839844 146.453125 38.945312 241.824219 L 35.308594 361.929688 Z M 0 361.929688 " style=" stroke:none;fill-rule:nonzero;fill:rgb(100%,85.490196%,26.666667%);fill-opacity:1;" />
<path d="M 512 132.414062 L 512 256 C 512 368.132812 421.097656 459.035156 308.964844 459.035156 L 194.207031 459.035156 L 194.207031 494.34375 L 105.929688 441.378906 L 194.207031 388.414062 L 194.207031 423.722656 L 296.605469 423.722656 C 392.019531 423.710938 470.160156 347.890625 473.054688 252.519531 L 476.691406 132.414062 Z M 512 132.414062 " style=" stroke:none;fill-rule:nonzero;fill:rgb(100%,85.490196%,26.666667%);fill-opacity:1;" />
<path d="M 485.515625 88.273438 L 503.171875 88.273438 L 503.171875 105.929688 L 485.515625 105.929688 Z M 485.515625 88.273438 " style=" stroke:none;fill-rule:nonzero;fill:rgb(0%,42.745098%,94.117647%);fill-opacity:1;" />
<path d="M 485.515625 52.964844 L 503.171875 52.964844 L 503.171875 70.621094 L 485.515625 70.621094 Z M 485.515625 52.964844 " style=" stroke:none;fill-rule:nonzero;fill:rgb(0%,42.745098%,94.117647%);fill-opacity:1;" />
<path d="M 485.515625 17.65625 L 503.171875 17.65625 L 503.171875 35.308594 L 485.515625 35.308594 Z M 485.515625 17.65625 " style=" stroke:none;fill-rule:nonzero;fill:rgb(0%,42.745098%,94.117647%);fill-opacity:1;" />
<path d="M 8.828125 459.035156 L 26.484375 459.035156 L 26.484375 476.691406 L 8.828125 476.691406 Z M 8.828125 459.035156 " style=" stroke:none;fill-rule:nonzero;fill:rgb(0%,42.745098%,94.117647%);fill-opacity:1;" />
<path d="M 8.828125 423.722656 L 26.484375 423.722656 L 26.484375 441.378906 L 8.828125 441.378906 Z M 8.828125 423.722656 " style=" stroke:none;fill-rule:nonzero;fill:rgb(0%,42.745098%,94.117647%);fill-opacity:1;" />
<path d="M 8.828125 388.414062 L 26.484375 388.414062 L 26.484375 406.070312 L 8.828125 406.070312 Z M 8.828125 388.414062 " style=" stroke:none;fill-rule:nonzero;fill:rgb(0%,42.745098%,94.117647%);fill-opacity:1;" />
<path d="M 203.035156 256 C 198.160156 256 194.207031 252.046875 194.207031 247.171875 C 194.25 213.0625 221.890625 185.421875 256 185.378906 C 260.875 185.378906 264.828125 189.332031 264.828125 194.207031 C 264.828125 199.082031 260.875 203.035156 256 203.035156 C 231.636719 203.0625 211.890625 222.808594 211.863281 247.171875 C 211.863281 252.046875 207.910156 256 203.035156 256 Z M 203.035156 256 " style=" stroke:none;fill-rule:nonzero;fill:rgb(0%,42.745098%,94.117647%);fill-opacity:1;" />
<path d="M 256 308.964844 C 251.125 308.964844 247.171875 305.011719 247.171875 300.136719 C 247.171875 295.261719 251.125 291.308594 256 291.308594 C 280.363281 291.28125 300.109375 271.535156 300.136719 247.171875 C 300.136719 242.296875 304.089844 238.34375 308.964844 238.34375 C 313.839844 238.34375 317.792969 242.296875 317.792969 247.171875 C 317.75 281.28125 290.109375 308.921875 256 308.964844 Z M 256 308.964844 " style=" stroke:none;fill-rule:nonzero;fill:rgb(0%,42.745098%,94.117647%);fill-opacity:1;" />
</g>
</svg>